# xmcd
#
# Track frame offsets:
#	150
#	18046
#	39325
#	54974
#	70497
#	92509
#	108859
#	130683
#	152951
#	169596
#	190997
#
# Disc length: 2766 seconds
#
# Revision: 0
# Processed by: cddbd v1.5.1PL0 Copyright (c) Steve Scherf et al.
# Submitted via: audiograbber 1.82.01
#
DISCID=800acc0b
DTITLE=The Snap Dragons - Erkenntnis
DYEAR=2005
DGENRE=Rock
TTITLE0=Erkenntnis
TTITLE1=Sonnenteilung
TTITLE2=Hat man schiss
TTITLE3=Neid
TTITLE4=Der König
TTITLE5=Zeit zu geh'n
TTITLE6=Verbrechen der Lust
TTITLE7=Die Zügel der Alten
TTITLE8=Keine Chance
TTITLE9=M.S.P.S.
TTITLE10=Wer hätte das von dir gedacht
EXTD=
EXTT0=
EXTT1=
EXTT2=
EXTT3=
EXTT4=
EXTT5=
EXTT6=
EXTT7=
EXTT8=
EXTT9=
EXTT10=
PLAYORDER=
